<mxfile host="app.diagrams.net" modified="2023-06-04T13:21:48.039Z" agent="Mozilla/5.0 (Windows NT 10.0; Win64; x64) AppleWebKit/537.36 (KHTML, like Gecko) Chrome/112.0.0.0 Safari/537.36 OPR/98.0.0.0" etag="HqDTwk41DQ2Ok2nVuUmd" version="21.3.4">
  <diagram name="Page-1" id="b37-8wvqhiwmUTXyI25v">
    <mxGraphModel dx="1990" dy="1094" grid="1" gridSize="10" guides="1" tooltips="1" connect="1" arrows="1" fold="1" page="1" pageScale="1" pageWidth="2336" pageHeight="1654" math="0" shadow="0">
      <root>
        <mxCell id="0" />
        <mxCell id="1" parent="0" />
        <mxCell id="HFd2KJPhhqKl3zKkZPLm-207" style="edgeStyle=orthogonalEdgeStyle;rounded=0;orthogonalLoop=1;jettySize=auto;html=1;entryX=0.5;entryY=0;entryDx=0;entryDy=0;endArrow=none;endFill=0;labelBackgroundColor=none;strokeColor=#23445D;fontColor=default;" edge="1" parent="1" source="HFd2KJPhhqKl3zKkZPLm-55" target="HFd2KJPhhqKl3zKkZPLm-59">
          <mxGeometry relative="1" as="geometry" />
        </mxCell>
        <mxCell id="HFd2KJPhhqKl3zKkZPLm-55" value="SOLAR_SYSTEMS" style="swimlane;fontStyle=0;childLayout=stackLayout;horizontal=1;startSize=26;fillColor=none;horizontalStack=0;resizeParent=1;resizeParentMax=0;resizeLast=0;collapsible=1;marginBottom=0;whiteSpace=wrap;html=1;labelBackgroundColor=none;strokeColor=#FFFFFF;fontColor=#FFFFFF;rounded=0;" vertex="1" parent="1">
          <mxGeometry x="1140" y="330" width="140" height="104" as="geometry" />
        </mxCell>
        <mxCell id="HFd2KJPhhqKl3zKkZPLm-56" value="+ id: INT" style="text;strokeColor=none;fillColor=none;align=left;verticalAlign=top;spacingLeft=4;spacingRight=4;overflow=hidden;rotatable=0;points=[[0,0.5],[1,0.5]];portConstraint=eastwest;whiteSpace=wrap;html=1;labelBackgroundColor=none;fontColor=#FFFFFF;rounded=0;" vertex="1" parent="HFd2KJPhhqKl3zKkZPLm-55">
          <mxGeometry y="26" width="140" height="26" as="geometry" />
        </mxCell>
        <mxCell id="HFd2KJPhhqKl3zKkZPLm-57" value="+ name: String" style="text;strokeColor=none;fillColor=none;align=left;verticalAlign=top;spacingLeft=4;spacingRight=4;overflow=hidden;rotatable=0;points=[[0,0.5],[1,0.5]];portConstraint=eastwest;whiteSpace=wrap;html=1;labelBackgroundColor=none;fontColor=#FFFFFF;rounded=0;" vertex="1" parent="HFd2KJPhhqKl3zKkZPLm-55">
          <mxGeometry y="52" width="140" height="26" as="geometry" />
        </mxCell>
        <mxCell id="HFd2KJPhhqKl3zKkZPLm-58" value="+ planets_number: INT" style="text;strokeColor=none;fillColor=none;align=left;verticalAlign=top;spacingLeft=4;spacingRight=4;overflow=hidden;rotatable=0;points=[[0,0.5],[1,0.5]];portConstraint=eastwest;whiteSpace=wrap;html=1;labelBackgroundColor=none;fontColor=#FFFFFF;rounded=0;" vertex="1" parent="HFd2KJPhhqKl3zKkZPLm-55">
          <mxGeometry y="78" width="140" height="26" as="geometry" />
        </mxCell>
        <mxCell id="HFd2KJPhhqKl3zKkZPLm-173" style="edgeStyle=orthogonalEdgeStyle;rounded=0;orthogonalLoop=1;jettySize=auto;html=1;exitX=1;exitY=0.5;exitDx=0;exitDy=0;entryX=0;entryY=0.5;entryDx=0;entryDy=0;endArrow=none;endFill=0;labelBackgroundColor=none;strokeColor=#23445D;fontColor=default;" edge="1" parent="1" source="HFd2KJPhhqKl3zKkZPLm-252" target="HFd2KJPhhqKl3zKkZPLm-41">
          <mxGeometry relative="1" as="geometry">
            <mxPoint x="320" y="210" as="targetPoint" />
          </mxGeometry>
        </mxCell>
        <mxCell id="HFd2KJPhhqKl3zKkZPLm-174" value="0,N" style="text;html=1;align=center;verticalAlign=middle;resizable=0;points=[];autosize=1;strokeColor=none;fillColor=none;labelBackgroundColor=none;fontColor=#FFFFFF;rounded=0;" vertex="1" parent="1">
          <mxGeometry x="220" y="205" width="40" height="30" as="geometry" />
        </mxCell>
        <mxCell id="HFd2KJPhhqKl3zKkZPLm-175" value="1,1" style="text;html=1;align=center;verticalAlign=middle;resizable=0;points=[];autosize=1;strokeColor=none;fillColor=none;labelBackgroundColor=none;fontColor=#FFFFFF;rounded=0;" vertex="1" parent="1">
          <mxGeometry x="380" y="205" width="40" height="30" as="geometry" />
        </mxCell>
        <mxCell id="HFd2KJPhhqKl3zKkZPLm-177" value="" style="group;labelBackgroundColor=none;fontColor=#FFFFFF;rounded=0;" vertex="1" connectable="0" parent="1">
          <mxGeometry x="90" y="440" width="140" height="190" as="geometry" />
        </mxCell>
        <mxCell id="HFd2KJPhhqKl3zKkZPLm-132" value="RESEARCHES" style="swimlane;fontStyle=0;childLayout=stackLayout;horizontal=1;startSize=26;fillColor=none;horizontalStack=0;resizeParent=1;resizeParentMax=0;resizeLast=0;collapsible=1;marginBottom=0;whiteSpace=wrap;html=1;labelBackgroundColor=none;strokeColor=#FFFFFF;fontColor=#FFFFFF;rounded=0;" vertex="1" parent="HFd2KJPhhqKl3zKkZPLm-177">
          <mxGeometry width="140" height="190" as="geometry" />
        </mxCell>
        <mxCell id="HFd2KJPhhqKl3zKkZPLm-133" value="+ id: INT" style="text;strokeColor=none;fillColor=none;align=left;verticalAlign=top;spacingLeft=4;spacingRight=4;overflow=hidden;rotatable=0;points=[[0,0.5],[1,0.5]];portConstraint=eastwest;whiteSpace=wrap;html=1;labelBackgroundColor=none;fontColor=#FFFFFF;rounded=0;" vertex="1" parent="HFd2KJPhhqKl3zKkZPLm-132">
          <mxGeometry y="26" width="140" height="26" as="geometry" />
        </mxCell>
        <mxCell id="HFd2KJPhhqKl3zKkZPLm-134" value="+ name: String" style="text;strokeColor=none;fillColor=none;align=left;verticalAlign=top;spacingLeft=4;spacingRight=4;overflow=hidden;rotatable=0;points=[[0,0.5],[1,0.5]];portConstraint=eastwest;whiteSpace=wrap;html=1;labelBackgroundColor=none;fontColor=#FFFFFF;rounded=0;" vertex="1" parent="HFd2KJPhhqKl3zKkZPLm-132">
          <mxGeometry y="52" width="140" height="26" as="geometry" />
        </mxCell>
        <mxCell id="HFd2KJPhhqKl3zKkZPLm-135" value="+ level: INT" style="text;strokeColor=none;fillColor=none;align=left;verticalAlign=top;spacingLeft=4;spacingRight=4;overflow=hidden;rotatable=0;points=[[0,0.5],[1,0.5]];portConstraint=eastwest;whiteSpace=wrap;html=1;labelBackgroundColor=none;fontColor=#FFFFFF;rounded=0;" vertex="1" parent="HFd2KJPhhqKl3zKkZPLm-132">
          <mxGeometry y="78" width="140" height="112" as="geometry" />
        </mxCell>
        <mxCell id="HFd2KJPhhqKl3zKkZPLm-136" value="+ research_time: INT" style="text;strokeColor=none;fillColor=none;align=left;verticalAlign=top;spacingLeft=4;spacingRight=4;overflow=hidden;rotatable=0;points=[[0,0.5],[1,0.5]];portConstraint=eastwest;whiteSpace=wrap;html=1;labelBackgroundColor=none;fontColor=#FFFFFF;rounded=0;" vertex="1" parent="HFd2KJPhhqKl3zKkZPLm-177">
          <mxGeometry y="104" width="140" height="26" as="geometry" />
        </mxCell>
        <mxCell id="HFd2KJPhhqKl3zKkZPLm-137" value="+ deuterium_cost: INT" style="text;strokeColor=none;fillColor=none;align=left;verticalAlign=top;spacingLeft=4;spacingRight=4;overflow=hidden;rotatable=0;points=[[0,0.5],[1,0.5]];portConstraint=eastwest;whiteSpace=wrap;html=1;labelBackgroundColor=none;fontColor=#FFFFFF;rounded=0;" vertex="1" parent="HFd2KJPhhqKl3zKkZPLm-177">
          <mxGeometry y="130" width="140" height="26" as="geometry" />
        </mxCell>
        <mxCell id="HFd2KJPhhqKl3zKkZPLm-138" value="+ metal_cost: INT" style="text;strokeColor=none;fillColor=none;align=left;verticalAlign=top;spacingLeft=4;spacingRight=4;overflow=hidden;rotatable=0;points=[[0,0.5],[1,0.5]];portConstraint=eastwest;whiteSpace=wrap;html=1;labelBackgroundColor=none;fontColor=#FFFFFF;rounded=0;" vertex="1" parent="HFd2KJPhhqKl3zKkZPLm-177">
          <mxGeometry y="156" width="140" height="26" as="geometry" />
        </mxCell>
        <mxCell id="HFd2KJPhhqKl3zKkZPLm-178" value="" style="group;labelBackgroundColor=none;fontColor=#FFFFFF;rounded=0;" vertex="1" connectable="0" parent="1">
          <mxGeometry x="90" y="795" width="140" height="170" as="geometry" />
        </mxCell>
        <mxCell id="HFd2KJPhhqKl3zKkZPLm-139" value="RESEARCH_TYPES" style="swimlane;fontStyle=0;childLayout=stackLayout;horizontal=1;startSize=26;fillColor=none;horizontalStack=0;resizeParent=1;resizeParentMax=0;resizeLast=0;collapsible=1;marginBottom=0;whiteSpace=wrap;html=1;labelBackgroundColor=none;strokeColor=#FFFFFF;fontColor=#FFFFFF;rounded=0;" vertex="1" parent="HFd2KJPhhqKl3zKkZPLm-178">
          <mxGeometry width="140" height="170" as="geometry" />
        </mxCell>
        <mxCell id="HFd2KJPhhqKl3zKkZPLm-140" value="+ id: INT" style="text;strokeColor=none;fillColor=none;align=left;verticalAlign=top;spacingLeft=4;spacingRight=4;overflow=hidden;rotatable=0;points=[[0,0.5],[1,0.5]];portConstraint=eastwest;whiteSpace=wrap;html=1;labelBackgroundColor=none;fontColor=#FFFFFF;rounded=0;" vertex="1" parent="HFd2KJPhhqKl3zKkZPLm-139">
          <mxGeometry y="26" width="140" height="26" as="geometry" />
        </mxCell>
        <mxCell id="HFd2KJPhhqKl3zKkZPLm-141" value="+ name: String" style="text;strokeColor=none;fillColor=none;align=left;verticalAlign=top;spacingLeft=4;spacingRight=4;overflow=hidden;rotatable=0;points=[[0,0.5],[1,0.5]];portConstraint=eastwest;whiteSpace=wrap;html=1;labelBackgroundColor=none;fontColor=#FFFFFF;rounded=0;" vertex="1" parent="HFd2KJPhhqKl3zKkZPLm-139">
          <mxGeometry y="52" width="140" height="26" as="geometry" />
        </mxCell>
        <mxCell id="HFd2KJPhhqKl3zKkZPLm-142" value="+ research_time: INT" style="text;strokeColor=none;fillColor=none;align=left;verticalAlign=top;spacingLeft=4;spacingRight=4;overflow=hidden;rotatable=0;points=[[0,0.5],[1,0.5]];portConstraint=eastwest;whiteSpace=wrap;html=1;labelBackgroundColor=none;fontColor=#FFFFFF;rounded=0;" vertex="1" parent="HFd2KJPhhqKl3zKkZPLm-139">
          <mxGeometry y="78" width="140" height="92" as="geometry" />
        </mxCell>
        <mxCell id="HFd2KJPhhqKl3zKkZPLm-143" value="+ deuterium_cost: INT" style="text;strokeColor=none;fillColor=none;align=left;verticalAlign=top;spacingLeft=4;spacingRight=4;overflow=hidden;rotatable=0;points=[[0,0.5],[1,0.5]];portConstraint=eastwest;whiteSpace=wrap;html=1;labelBackgroundColor=none;fontColor=#FFFFFF;rounded=0;" vertex="1" parent="HFd2KJPhhqKl3zKkZPLm-178">
          <mxGeometry y="104" width="140" height="26" as="geometry" />
        </mxCell>
        <mxCell id="HFd2KJPhhqKl3zKkZPLm-144" value="+ metal_cost: INT" style="text;strokeColor=none;fillColor=none;align=left;verticalAlign=top;spacingLeft=4;spacingRight=4;overflow=hidden;rotatable=0;points=[[0,0.5],[1,0.5]];portConstraint=eastwest;whiteSpace=wrap;html=1;labelBackgroundColor=none;fontColor=#FFFFFF;rounded=0;" vertex="1" parent="HFd2KJPhhqKl3zKkZPLm-178">
          <mxGeometry y="130" width="140" height="26" as="geometry" />
        </mxCell>
        <mxCell id="HFd2KJPhhqKl3zKkZPLm-179" value="" style="group;labelBackgroundColor=none;fontColor=#FFFFFF;rounded=0;" vertex="1" connectable="0" parent="1">
          <mxGeometry x="620" y="831" width="140" height="170" as="geometry" />
        </mxCell>
        <mxCell id="HFd2KJPhhqKl3zKkZPLm-152" value="SHIPS" style="swimlane;fontStyle=0;childLayout=stackLayout;horizontal=1;startSize=26;fillColor=none;horizontalStack=0;resizeParent=1;resizeParentMax=0;resizeLast=0;collapsible=1;marginBottom=0;whiteSpace=wrap;html=1;labelBackgroundColor=none;strokeColor=#FFFFFF;fontColor=#FFFFFF;rounded=0;" vertex="1" parent="HFd2KJPhhqKl3zKkZPLm-179">
          <mxGeometry width="140" height="170" as="geometry" />
        </mxCell>
        <mxCell id="HFd2KJPhhqKl3zKkZPLm-153" value="+ id: INT" style="text;strokeColor=none;fillColor=none;align=left;verticalAlign=top;spacingLeft=4;spacingRight=4;overflow=hidden;rotatable=0;points=[[0,0.5],[1,0.5]];portConstraint=eastwest;whiteSpace=wrap;html=1;labelBackgroundColor=none;fontColor=#FFFFFF;rounded=0;" vertex="1" parent="HFd2KJPhhqKl3zKkZPLm-152">
          <mxGeometry y="26" width="140" height="26" as="geometry" />
        </mxCell>
        <mxCell id="HFd2KJPhhqKl3zKkZPLm-154" value="+ name: String" style="text;strokeColor=none;fillColor=none;align=left;verticalAlign=top;spacingLeft=4;spacingRight=4;overflow=hidden;rotatable=0;points=[[0,0.5],[1,0.5]];portConstraint=eastwest;whiteSpace=wrap;html=1;labelBackgroundColor=none;fontColor=#FFFFFF;rounded=0;" vertex="1" parent="HFd2KJPhhqKl3zKkZPLm-152">
          <mxGeometry y="52" width="140" height="26" as="geometry" />
        </mxCell>
        <mxCell id="HFd2KJPhhqKl3zKkZPLm-155" value="+ attack: INT" style="text;strokeColor=none;fillColor=none;align=left;verticalAlign=top;spacingLeft=4;spacingRight=4;overflow=hidden;rotatable=0;points=[[0,0.5],[1,0.5]];portConstraint=eastwest;whiteSpace=wrap;html=1;labelBackgroundColor=none;fontColor=#FFFFFF;rounded=0;" vertex="1" parent="HFd2KJPhhqKl3zKkZPLm-152">
          <mxGeometry y="78" width="140" height="92" as="geometry" />
        </mxCell>
        <mxCell id="HFd2KJPhhqKl3zKkZPLm-156" value="+ defense: INT" style="text;strokeColor=none;fillColor=none;align=left;verticalAlign=top;spacingLeft=4;spacingRight=4;overflow=hidden;rotatable=0;points=[[0,0.5],[1,0.5]];portConstraint=eastwest;whiteSpace=wrap;html=1;labelBackgroundColor=none;fontColor=#FFFFFF;rounded=0;" vertex="1" parent="HFd2KJPhhqKl3zKkZPLm-179">
          <mxGeometry y="104" width="140" height="26" as="geometry" />
        </mxCell>
        <mxCell id="HFd2KJPhhqKl3zKkZPLm-157" value="+ capacity: INT" style="text;strokeColor=none;fillColor=none;align=left;verticalAlign=top;spacingLeft=4;spacingRight=4;overflow=hidden;rotatable=0;points=[[0,0.5],[1,0.5]];portConstraint=eastwest;whiteSpace=wrap;html=1;labelBackgroundColor=none;fontColor=#FFFFFF;rounded=0;" vertex="1" parent="HFd2KJPhhqKl3zKkZPLm-179">
          <mxGeometry y="130" width="140" height="26" as="geometry" />
        </mxCell>
        <mxCell id="HFd2KJPhhqKl3zKkZPLm-180" value="" style="group;labelBackgroundColor=none;fontColor=#FFFFFF;rounded=0;" vertex="1" connectable="0" parent="1">
          <mxGeometry x="610" y="1150" width="160" height="240" as="geometry" />
        </mxCell>
        <mxCell id="HFd2KJPhhqKl3zKkZPLm-158" value="SHIP_TYPES" style="swimlane;fontStyle=0;childLayout=stackLayout;horizontal=1;startSize=26;fillColor=none;horizontalStack=0;resizeParent=1;resizeParentMax=0;resizeLast=0;collapsible=1;marginBottom=0;whiteSpace=wrap;html=1;labelBackgroundColor=none;strokeColor=#FFFFFF;fontColor=#FFFFFF;rounded=0;" vertex="1" parent="HFd2KJPhhqKl3zKkZPLm-180">
          <mxGeometry width="160" height="240" as="geometry" />
        </mxCell>
        <mxCell id="HFd2KJPhhqKl3zKkZPLm-159" value="+ id: INT" style="text;strokeColor=none;fillColor=none;align=left;verticalAlign=top;spacingLeft=4;spacingRight=4;overflow=hidden;rotatable=0;points=[[0,0.5],[1,0.5]];portConstraint=eastwest;whiteSpace=wrap;html=1;labelBackgroundColor=none;fontColor=#FFFFFF;rounded=0;" vertex="1" parent="HFd2KJPhhqKl3zKkZPLm-158">
          <mxGeometry y="26" width="160" height="26" as="geometry" />
        </mxCell>
        <mxCell id="HFd2KJPhhqKl3zKkZPLm-160" value="+ name: String" style="text;strokeColor=none;fillColor=none;align=left;verticalAlign=top;spacingLeft=4;spacingRight=4;overflow=hidden;rotatable=0;points=[[0,0.5],[1,0.5]];portConstraint=eastwest;whiteSpace=wrap;html=1;labelBackgroundColor=none;fontColor=#FFFFFF;rounded=0;" vertex="1" parent="HFd2KJPhhqKl3zKkZPLm-158">
          <mxGeometry y="52" width="160" height="26" as="geometry" />
        </mxCell>
        <mxCell id="HFd2KJPhhqKl3zKkZPLm-161" value="+ deuterium_number: INT" style="text;strokeColor=none;fillColor=none;align=left;verticalAlign=top;spacingLeft=4;spacingRight=4;overflow=hidden;rotatable=0;points=[[0,0.5],[1,0.5]];portConstraint=eastwest;whiteSpace=wrap;html=1;labelBackgroundColor=none;fontColor=#FFFFFF;rounded=0;" vertex="1" parent="HFd2KJPhhqKl3zKkZPLm-158">
          <mxGeometry y="78" width="160" height="162" as="geometry" />
        </mxCell>
        <mxCell id="HFd2KJPhhqKl3zKkZPLm-162" value="+ metal_number: INT" style="text;strokeColor=none;fillColor=none;align=left;verticalAlign=top;spacingLeft=4;spacingRight=4;overflow=hidden;rotatable=0;points=[[0,0.5],[1,0.5]];portConstraint=eastwest;whiteSpace=wrap;html=1;labelBackgroundColor=none;fontColor=#FFFFFF;rounded=0;" vertex="1" parent="HFd2KJPhhqKl3zKkZPLm-180">
          <mxGeometry y="104" width="140" height="26" as="geometry" />
        </mxCell>
        <mxCell id="HFd2KJPhhqKl3zKkZPLm-163" value="+ building_time: INT" style="text;strokeColor=none;fillColor=none;align=left;verticalAlign=top;spacingLeft=4;spacingRight=4;overflow=hidden;rotatable=0;points=[[0,0.5],[1,0.5]];portConstraint=eastwest;whiteSpace=wrap;html=1;labelBackgroundColor=none;fontColor=#FFFFFF;rounded=0;" vertex="1" parent="HFd2KJPhhqKl3zKkZPLm-180">
          <mxGeometry y="130" width="140" height="26" as="geometry" />
        </mxCell>
        <mxCell id="HFd2KJPhhqKl3zKkZPLm-164" value="+ attack: INT" style="text;strokeColor=none;fillColor=none;align=left;verticalAlign=top;spacingLeft=4;spacingRight=4;overflow=hidden;rotatable=0;points=[[0,0.5],[1,0.5]];portConstraint=eastwest;whiteSpace=wrap;html=1;labelBackgroundColor=none;fontColor=#FFFFFF;rounded=0;" vertex="1" parent="HFd2KJPhhqKl3zKkZPLm-180">
          <mxGeometry y="156" width="140" height="26" as="geometry" />
        </mxCell>
        <mxCell id="HFd2KJPhhqKl3zKkZPLm-165" value="+ defense: INT" style="text;strokeColor=none;fillColor=none;align=left;verticalAlign=top;spacingLeft=4;spacingRight=4;overflow=hidden;rotatable=0;points=[[0,0.5],[1,0.5]];portConstraint=eastwest;whiteSpace=wrap;html=1;labelBackgroundColor=none;fontColor=#FFFFFF;rounded=0;" vertex="1" parent="HFd2KJPhhqKl3zKkZPLm-180">
          <mxGeometry y="182" width="140" height="26" as="geometry" />
        </mxCell>
        <mxCell id="HFd2KJPhhqKl3zKkZPLm-166" value="+ capacity: INT" style="text;strokeColor=none;fillColor=none;align=left;verticalAlign=top;spacingLeft=4;spacingRight=4;overflow=hidden;rotatable=0;points=[[0,0.5],[1,0.5]];portConstraint=eastwest;whiteSpace=wrap;html=1;labelBackgroundColor=none;fontColor=#FFFFFF;rounded=0;" vertex="1" parent="HFd2KJPhhqKl3zKkZPLm-180">
          <mxGeometry y="208" width="140" height="26" as="geometry" />
        </mxCell>
        <mxCell id="HFd2KJPhhqKl3zKkZPLm-181" value="" style="group;labelBackgroundColor=none;fontColor=#FFFFFF;rounded=0;" vertex="1" connectable="0" parent="1">
          <mxGeometry x="1140" y="870" width="140" height="140" as="geometry" />
        </mxCell>
        <mxCell id="HFd2KJPhhqKl3zKkZPLm-127" value="RESOURCES" style="swimlane;fontStyle=0;childLayout=stackLayout;horizontal=1;startSize=26;fillColor=none;horizontalStack=0;resizeParent=1;resizeParentMax=0;resizeLast=0;collapsible=1;marginBottom=0;whiteSpace=wrap;html=1;labelBackgroundColor=none;strokeColor=#FFFFFF;fontColor=#FFFFFF;rounded=0;" vertex="1" parent="HFd2KJPhhqKl3zKkZPLm-181">
          <mxGeometry width="140" height="140" as="geometry" />
        </mxCell>
        <mxCell id="HFd2KJPhhqKl3zKkZPLm-128" value="+ id: INT" style="text;strokeColor=none;fillColor=none;align=left;verticalAlign=top;spacingLeft=4;spacingRight=4;overflow=hidden;rotatable=0;points=[[0,0.5],[1,0.5]];portConstraint=eastwest;whiteSpace=wrap;html=1;labelBackgroundColor=none;fontColor=#FFFFFF;rounded=0;" vertex="1" parent="HFd2KJPhhqKl3zKkZPLm-127">
          <mxGeometry y="26" width="140" height="26" as="geometry" />
        </mxCell>
        <mxCell id="HFd2KJPhhqKl3zKkZPLm-129" value="+ deuterium: INT" style="text;strokeColor=none;fillColor=none;align=left;verticalAlign=top;spacingLeft=4;spacingRight=4;overflow=hidden;rotatable=0;points=[[0,0.5],[1,0.5]];portConstraint=eastwest;whiteSpace=wrap;html=1;labelBackgroundColor=none;fontColor=#FFFFFF;rounded=0;" vertex="1" parent="HFd2KJPhhqKl3zKkZPLm-127">
          <mxGeometry y="52" width="140" height="26" as="geometry" />
        </mxCell>
        <mxCell id="HFd2KJPhhqKl3zKkZPLm-130" value="+ energy: INT" style="text;strokeColor=none;fillColor=none;align=left;verticalAlign=top;spacingLeft=4;spacingRight=4;overflow=hidden;rotatable=0;points=[[0,0.5],[1,0.5]];portConstraint=eastwest;whiteSpace=wrap;html=1;labelBackgroundColor=none;fontColor=#FFFFFF;rounded=0;" vertex="1" parent="HFd2KJPhhqKl3zKkZPLm-127">
          <mxGeometry y="78" width="140" height="62" as="geometry" />
        </mxCell>
        <mxCell id="HFd2KJPhhqKl3zKkZPLm-131" value="+ metal: INT" style="text;strokeColor=none;fillColor=none;align=left;verticalAlign=top;spacingLeft=4;spacingRight=4;overflow=hidden;rotatable=0;points=[[0,0.5],[1,0.5]];portConstraint=eastwest;whiteSpace=wrap;html=1;labelBackgroundColor=none;fontColor=#FFFFFF;rounded=0;" vertex="1" parent="HFd2KJPhhqKl3zKkZPLm-181">
          <mxGeometry y="104" width="140" height="26" as="geometry" />
        </mxCell>
        <mxCell id="HFd2KJPhhqKl3zKkZPLm-182" value="" style="group;labelBackgroundColor=none;fontColor=#FFFFFF;rounded=0;" vertex="1" connectable="0" parent="1">
          <mxGeometry x="1140" y="570" width="140" height="140" as="geometry" />
        </mxCell>
        <mxCell id="HFd2KJPhhqKl3zKkZPLm-59" value="PLANETS" style="swimlane;fontStyle=0;childLayout=stackLayout;horizontal=1;startSize=26;fillColor=none;horizontalStack=0;resizeParent=1;resizeParentMax=0;resizeLast=0;collapsible=1;marginBottom=0;whiteSpace=wrap;html=1;labelBackgroundColor=none;strokeColor=#FFFFFF;fontColor=#FFFFFF;rounded=0;" vertex="1" parent="HFd2KJPhhqKl3zKkZPLm-182">
          <mxGeometry width="140" height="140" as="geometry" />
        </mxCell>
        <mxCell id="HFd2KJPhhqKl3zKkZPLm-60" value="+ id: INT" style="text;strokeColor=none;fillColor=none;align=left;verticalAlign=top;spacingLeft=4;spacingRight=4;overflow=hidden;rotatable=0;points=[[0,0.5],[1,0.5]];portConstraint=eastwest;whiteSpace=wrap;html=1;labelBackgroundColor=none;fontColor=#FFFFFF;rounded=0;" vertex="1" parent="HFd2KJPhhqKl3zKkZPLm-59">
          <mxGeometry y="26" width="140" height="26" as="geometry" />
        </mxCell>
        <mxCell id="HFd2KJPhhqKl3zKkZPLm-61" value="+ name: String" style="text;strokeColor=none;fillColor=none;align=left;verticalAlign=top;spacingLeft=4;spacingRight=4;overflow=hidden;rotatable=0;points=[[0,0.5],[1,0.5]];portConstraint=eastwest;whiteSpace=wrap;html=1;labelBackgroundColor=none;fontColor=#FFFFFF;rounded=0;" vertex="1" parent="HFd2KJPhhqKl3zKkZPLm-59">
          <mxGeometry y="52" width="140" height="26" as="geometry" />
        </mxCell>
        <mxCell id="HFd2KJPhhqKl3zKkZPLm-62" value="+ position: INT" style="text;strokeColor=none;fillColor=none;align=left;verticalAlign=top;spacingLeft=4;spacingRight=4;overflow=hidden;rotatable=0;points=[[0,0.5],[1,0.5]];portConstraint=eastwest;whiteSpace=wrap;html=1;labelBackgroundColor=none;fontColor=#FFFFFF;rounded=0;" vertex="1" parent="HFd2KJPhhqKl3zKkZPLm-59">
          <mxGeometry y="78" width="140" height="62" as="geometry" />
        </mxCell>
        <mxCell id="HFd2KJPhhqKl3zKkZPLm-63" value="+ size: INT" style="text;strokeColor=none;fillColor=none;align=left;verticalAlign=top;spacingLeft=4;spacingRight=4;overflow=hidden;rotatable=0;points=[[0,0.5],[1,0.5]];portConstraint=eastwest;whiteSpace=wrap;html=1;labelBackgroundColor=none;fontColor=#FFFFFF;rounded=0;" vertex="1" parent="HFd2KJPhhqKl3zKkZPLm-182">
          <mxGeometry y="104" width="140" height="26" as="geometry" />
        </mxCell>
        <mxCell id="HFd2KJPhhqKl3zKkZPLm-184" value="" style="group;labelBackgroundColor=none;fontColor=#FFFFFF;rounded=0;" vertex="1" connectable="0" parent="1">
          <mxGeometry x="430" y="510" width="140" height="170" as="geometry" />
        </mxCell>
        <mxCell id="HFd2KJPhhqKl3zKkZPLm-146" value="FLEETS" style="swimlane;fontStyle=0;childLayout=stackLayout;horizontal=1;startSize=26;fillColor=none;horizontalStack=0;resizeParent=1;resizeParentMax=0;resizeLast=0;collapsible=1;marginBottom=0;whiteSpace=wrap;html=1;labelBackgroundColor=none;strokeColor=#FFFFFF;fontColor=#FFFFFF;rounded=0;" vertex="1" parent="HFd2KJPhhqKl3zKkZPLm-184">
          <mxGeometry width="140" height="170" as="geometry" />
        </mxCell>
        <mxCell id="HFd2KJPhhqKl3zKkZPLm-147" value="+ id: INT" style="text;strokeColor=none;fillColor=none;align=left;verticalAlign=top;spacingLeft=4;spacingRight=4;overflow=hidden;rotatable=0;points=[[0,0.5],[1,0.5]];portConstraint=eastwest;whiteSpace=wrap;html=1;labelBackgroundColor=none;fontColor=#FFFFFF;rounded=0;" vertex="1" parent="HFd2KJPhhqKl3zKkZPLm-146">
          <mxGeometry y="26" width="140" height="26" as="geometry" />
        </mxCell>
        <mxCell id="HFd2KJPhhqKl3zKkZPLm-148" value="+ name: String" style="text;strokeColor=none;fillColor=none;align=left;verticalAlign=top;spacingLeft=4;spacingRight=4;overflow=hidden;rotatable=0;points=[[0,0.5],[1,0.5]];portConstraint=eastwest;whiteSpace=wrap;html=1;labelBackgroundColor=none;fontColor=#FFFFFF;rounded=0;" vertex="1" parent="HFd2KJPhhqKl3zKkZPLm-146">
          <mxGeometry y="52" width="140" height="26" as="geometry" />
        </mxCell>
        <mxCell id="HFd2KJPhhqKl3zKkZPLm-149" value="+ ships_number: INT" style="text;strokeColor=none;fillColor=none;align=left;verticalAlign=top;spacingLeft=4;spacingRight=4;overflow=hidden;rotatable=0;points=[[0,0.5],[1,0.5]];portConstraint=eastwest;whiteSpace=wrap;html=1;labelBackgroundColor=none;fontColor=#FFFFFF;rounded=0;" vertex="1" parent="HFd2KJPhhqKl3zKkZPLm-146">
          <mxGeometry y="78" width="140" height="92" as="geometry" />
        </mxCell>
        <mxCell id="HFd2KJPhhqKl3zKkZPLm-150" value="+ attack: INT" style="text;strokeColor=none;fillColor=none;align=left;verticalAlign=top;spacingLeft=4;spacingRight=4;overflow=hidden;rotatable=0;points=[[0,0.5],[1,0.5]];portConstraint=eastwest;whiteSpace=wrap;html=1;labelBackgroundColor=none;fontColor=#FFFFFF;rounded=0;" vertex="1" parent="HFd2KJPhhqKl3zKkZPLm-184">
          <mxGeometry y="104" width="140" height="26" as="geometry" />
        </mxCell>
        <mxCell id="HFd2KJPhhqKl3zKkZPLm-151" value="+ defense: INT" style="text;strokeColor=none;fillColor=none;align=left;verticalAlign=top;spacingLeft=4;spacingRight=4;overflow=hidden;rotatable=0;points=[[0,0.5],[1,0.5]];portConstraint=eastwest;whiteSpace=wrap;html=1;labelBackgroundColor=none;fontColor=#FFFFFF;rounded=0;" vertex="1" parent="HFd2KJPhhqKl3zKkZPLm-184">
          <mxGeometry y="130" width="140" height="30" as="geometry" />
        </mxCell>
        <mxCell id="HFd2KJPhhqKl3zKkZPLm-185" value="" style="group;labelBackgroundColor=none;fontColor=#FFFFFF;rounded=0;" vertex="1" connectable="0" parent="1">
          <mxGeometry x="420" y="80" width="160" height="280" as="geometry" />
        </mxCell>
        <mxCell id="HFd2KJPhhqKl3zKkZPLm-274" value="" style="group" vertex="1" connectable="0" parent="HFd2KJPhhqKl3zKkZPLm-185">
          <mxGeometry width="160" height="280" as="geometry" />
        </mxCell>
        <mxCell id="HFd2KJPhhqKl3zKkZPLm-33" value="EMPIRES" style="swimlane;fontStyle=0;childLayout=stackLayout;horizontal=1;startSize=26;fillColor=none;horizontalStack=0;resizeParent=1;resizeParentMax=0;resizeLast=0;collapsible=1;marginBottom=0;whiteSpace=wrap;html=1;labelBackgroundColor=none;strokeColor=#FFFFFF;fontColor=#FFFFFF;rounded=0;" vertex="1" parent="HFd2KJPhhqKl3zKkZPLm-274">
          <mxGeometry width="160" height="280" as="geometry" />
        </mxCell>
        <mxCell id="HFd2KJPhhqKl3zKkZPLm-34" value="+ id: INT" style="text;strokeColor=none;fillColor=none;align=left;verticalAlign=top;spacingLeft=4;spacingRight=4;overflow=hidden;rotatable=0;points=[[0,0.5],[1,0.5]];portConstraint=eastwest;whiteSpace=wrap;html=1;labelBackgroundColor=none;fontColor=#FFFFFF;rounded=0;" vertex="1" parent="HFd2KJPhhqKl3zKkZPLm-33">
          <mxGeometry y="26" width="160" height="26" as="geometry" />
        </mxCell>
        <mxCell id="HFd2KJPhhqKl3zKkZPLm-35" value="+ name: String" style="text;strokeColor=none;fillColor=none;align=left;verticalAlign=top;spacingLeft=4;spacingRight=4;overflow=hidden;rotatable=0;points=[[0,0.5],[1,0.5]];portConstraint=eastwest;whiteSpace=wrap;html=1;labelBackgroundColor=none;fontColor=#FFFFFF;rounded=0;" vertex="1" parent="HFd2KJPhhqKl3zKkZPLm-33">
          <mxGeometry y="52" width="160" height="26" as="geometry" />
        </mxCell>
        <mxCell id="HFd2KJPhhqKl3zKkZPLm-36" value="+ race: String" style="text;strokeColor=none;fillColor=none;align=left;verticalAlign=top;spacingLeft=4;spacingRight=4;overflow=hidden;rotatable=0;points=[[0,0.5],[1,0.5]];portConstraint=eastwest;whiteSpace=wrap;html=1;labelBackgroundColor=none;fontColor=#FFFFFF;rounded=0;" vertex="1" parent="HFd2KJPhhqKl3zKkZPLm-33">
          <mxGeometry y="78" width="160" height="202" as="geometry" />
        </mxCell>
        <mxCell id="HFd2KJPhhqKl3zKkZPLm-41" value="+ adjective: String" style="text;strokeColor=none;fillColor=none;align=left;verticalAlign=top;spacingLeft=4;spacingRight=4;overflow=hidden;rotatable=0;points=[[0,0.5],[1,0.5]];portConstraint=eastwest;whiteSpace=wrap;html=1;labelBackgroundColor=none;fontColor=#FFFFFF;rounded=0;" vertex="1" parent="HFd2KJPhhqKl3zKkZPLm-274">
          <mxGeometry y="110" width="140" height="32" as="geometry" />
        </mxCell>
        <mxCell id="HFd2KJPhhqKl3zKkZPLm-42" value="+ deuterium_stock: INT" style="text;strokeColor=none;fillColor=none;align=left;verticalAlign=top;spacingLeft=4;spacingRight=4;overflow=hidden;rotatable=0;points=[[0,0.5],[1,0.5]];portConstraint=eastwest;whiteSpace=wrap;html=1;labelBackgroundColor=none;fontColor=#FFFFFF;rounded=0;" vertex="1" parent="HFd2KJPhhqKl3zKkZPLm-274">
          <mxGeometry y="142" width="140" height="32" as="geometry" />
        </mxCell>
        <mxCell id="HFd2KJPhhqKl3zKkZPLm-43" value="+ energy_stock: INT" style="text;strokeColor=none;fillColor=none;align=left;verticalAlign=top;spacingLeft=4;spacingRight=4;overflow=hidden;rotatable=0;points=[[0,0.5],[1,0.5]];portConstraint=eastwest;whiteSpace=wrap;html=1;labelBackgroundColor=none;fontColor=#FFFFFF;rounded=0;" vertex="1" parent="HFd2KJPhhqKl3zKkZPLm-274">
          <mxGeometry y="174" width="140" height="32" as="geometry" />
        </mxCell>
        <mxCell id="HFd2KJPhhqKl3zKkZPLm-44" value="+ energy_stock_used: INT" style="text;strokeColor=none;fillColor=none;align=left;verticalAlign=top;spacingLeft=4;spacingRight=4;overflow=hidden;rotatable=0;points=[[0,0.5],[1,0.5]];portConstraint=eastwest;whiteSpace=wrap;html=1;labelBackgroundColor=none;fontColor=#FFFFFF;rounded=0;" vertex="1" parent="HFd2KJPhhqKl3zKkZPLm-274">
          <mxGeometry y="210" width="160" height="32" as="geometry" />
        </mxCell>
        <mxCell id="HFd2KJPhhqKl3zKkZPLm-45" value="+ metal_stock: INT" style="text;strokeColor=none;fillColor=none;align=left;verticalAlign=top;spacingLeft=4;spacingRight=4;overflow=hidden;rotatable=0;points=[[0,0.5],[1,0.5]];portConstraint=eastwest;whiteSpace=wrap;html=1;labelBackgroundColor=none;fontColor=#FFFFFF;rounded=0;" vertex="1" parent="HFd2KJPhhqKl3zKkZPLm-274">
          <mxGeometry y="242" width="140" height="32" as="geometry" />
        </mxCell>
        <mxCell id="HFd2KJPhhqKl3zKkZPLm-186" value="" style="group;labelBackgroundColor=none;fontColor=#FFFFFF;rounded=0;" vertex="1" connectable="0" parent="1">
          <mxGeometry x="80" y="140" width="140" height="140" as="geometry" />
        </mxCell>
        <mxCell id="HFd2KJPhhqKl3zKkZPLm-28" value="USERS" style="swimlane;fontStyle=0;childLayout=stackLayout;horizontal=1;startSize=26;fillColor=none;horizontalStack=0;resizeParent=1;resizeParentMax=0;resizeLast=0;collapsible=1;marginBottom=0;whiteSpace=wrap;html=1;labelBackgroundColor=none;strokeColor=#FFFFFF;fontColor=#FFFFFF;rounded=0;" vertex="1" parent="HFd2KJPhhqKl3zKkZPLm-186">
          <mxGeometry width="140" height="140" as="geometry" />
        </mxCell>
        <mxCell id="HFd2KJPhhqKl3zKkZPLm-29" value="+ id: INT" style="text;strokeColor=none;fillColor=none;align=left;verticalAlign=top;spacingLeft=4;spacingRight=4;overflow=hidden;rotatable=0;points=[[0,0.5],[1,0.5]];portConstraint=eastwest;whiteSpace=wrap;html=1;labelBackgroundColor=none;fontColor=#FFFFFF;rounded=0;" vertex="1" parent="HFd2KJPhhqKl3zKkZPLm-28">
          <mxGeometry y="26" width="140" height="26" as="geometry" />
        </mxCell>
        <mxCell id="HFd2KJPhhqKl3zKkZPLm-30" value="+ email: String" style="text;strokeColor=none;fillColor=none;align=left;verticalAlign=top;spacingLeft=4;spacingRight=4;overflow=hidden;rotatable=0;points=[[0,0.5],[1,0.5]];portConstraint=eastwest;whiteSpace=wrap;html=1;labelBackgroundColor=none;fontColor=#FFFFFF;rounded=0;" vertex="1" parent="HFd2KJPhhqKl3zKkZPLm-28">
          <mxGeometry y="52" width="140" height="26" as="geometry" />
        </mxCell>
        <mxCell id="HFd2KJPhhqKl3zKkZPLm-31" value="+ username: String" style="text;strokeColor=none;fillColor=none;align=left;verticalAlign=top;spacingLeft=4;spacingRight=4;overflow=hidden;rotatable=0;points=[[0,0.5],[1,0.5]];portConstraint=eastwest;whiteSpace=wrap;html=1;labelBackgroundColor=none;fontColor=#FFFFFF;rounded=0;" vertex="1" parent="HFd2KJPhhqKl3zKkZPLm-28">
          <mxGeometry y="78" width="140" height="62" as="geometry" />
        </mxCell>
        <mxCell id="HFd2KJPhhqKl3zKkZPLm-32" value="+ password: String" style="text;strokeColor=none;fillColor=none;align=left;verticalAlign=top;spacingLeft=4;spacingRight=4;overflow=hidden;rotatable=0;points=[[0,0.5],[1,0.5]];portConstraint=eastwest;whiteSpace=wrap;html=1;labelBackgroundColor=none;fontColor=#FFFFFF;rounded=0;" vertex="1" parent="HFd2KJPhhqKl3zKkZPLm-186">
          <mxGeometry y="104" width="140" height="26" as="geometry" />
        </mxCell>
        <mxCell id="HFd2KJPhhqKl3zKkZPLm-187" value="" style="group;labelBackgroundColor=none;fontColor=#FFFFFF;rounded=0;" vertex="1" connectable="0" parent="1">
          <mxGeometry x="1550" y="465" width="180" height="340" as="geometry" />
        </mxCell>
        <mxCell id="HFd2KJPhhqKl3zKkZPLm-64" value="INFRASTRUCTURES" style="swimlane;fontStyle=0;childLayout=stackLayout;horizontal=1;startSize=26;fillColor=none;horizontalStack=0;resizeParent=1;resizeParentMax=0;resizeLast=0;collapsible=1;marginBottom=0;whiteSpace=wrap;html=1;labelBackgroundColor=none;strokeColor=#FFFFFF;fontColor=#FFFFFF;rounded=0;" vertex="1" parent="HFd2KJPhhqKl3zKkZPLm-187">
          <mxGeometry width="180" height="340" as="geometry" />
        </mxCell>
        <mxCell id="HFd2KJPhhqKl3zKkZPLm-65" value="+ id: INT" style="text;strokeColor=none;fillColor=none;align=left;verticalAlign=top;spacingLeft=4;spacingRight=4;overflow=hidden;rotatable=0;points=[[0,0.5],[1,0.5]];portConstraint=eastwest;whiteSpace=wrap;html=1;labelBackgroundColor=none;fontColor=#FFFFFF;rounded=0;" vertex="1" parent="HFd2KJPhhqKl3zKkZPLm-64">
          <mxGeometry y="26" width="180" height="26" as="geometry" />
        </mxCell>
        <mxCell id="HFd2KJPhhqKl3zKkZPLm-66" value="+ name: String" style="text;strokeColor=none;fillColor=none;align=left;verticalAlign=top;spacingLeft=4;spacingRight=4;overflow=hidden;rotatable=0;points=[[0,0.5],[1,0.5]];portConstraint=eastwest;whiteSpace=wrap;html=1;labelBackgroundColor=none;fontColor=#FFFFFF;rounded=0;" vertex="1" parent="HFd2KJPhhqKl3zKkZPLm-64">
          <mxGeometry y="52" width="180" height="26" as="geometry" />
        </mxCell>
        <mxCell id="HFd2KJPhhqKl3zKkZPLm-67" value="+ level: INT" style="text;strokeColor=none;fillColor=none;align=left;verticalAlign=top;spacingLeft=4;spacingRight=4;overflow=hidden;rotatable=0;points=[[0,0.5],[1,0.5]];portConstraint=eastwest;whiteSpace=wrap;html=1;labelBackgroundColor=none;fontColor=#FFFFFF;rounded=0;" vertex="1" parent="HFd2KJPhhqKl3zKkZPLm-64">
          <mxGeometry y="78" width="180" height="262" as="geometry" />
        </mxCell>
        <mxCell id="HFd2KJPhhqKl3zKkZPLm-68" value="+ upgrade_time: INT" style="text;strokeColor=none;fillColor=none;align=left;verticalAlign=top;spacingLeft=4;spacingRight=4;overflow=hidden;rotatable=0;points=[[0,0.5],[1,0.5]];portConstraint=eastwest;whiteSpace=wrap;html=1;labelBackgroundColor=none;fontColor=#FFFFFF;rounded=0;" vertex="1" parent="HFd2KJPhhqKl3zKkZPLm-187">
          <mxGeometry y="104" width="140" height="26" as="geometry" />
        </mxCell>
        <mxCell id="HFd2KJPhhqKl3zKkZPLm-69" value="+ deuterium_cost: INT" style="text;strokeColor=none;fillColor=none;align=left;verticalAlign=top;spacingLeft=4;spacingRight=4;overflow=hidden;rotatable=0;points=[[0,0.5],[1,0.5]];portConstraint=eastwest;whiteSpace=wrap;html=1;labelBackgroundColor=none;fontColor=#FFFFFF;rounded=0;" vertex="1" parent="HFd2KJPhhqKl3zKkZPLm-187">
          <mxGeometry y="130" width="140" height="26" as="geometry" />
        </mxCell>
        <mxCell id="HFd2KJPhhqKl3zKkZPLm-74" value="+ energy_cost: INT" style="text;strokeColor=none;fillColor=none;align=left;verticalAlign=top;spacingLeft=4;spacingRight=4;overflow=hidden;rotatable=0;points=[[0,0.5],[1,0.5]];portConstraint=eastwest;whiteSpace=wrap;html=1;labelBackgroundColor=none;fontColor=#FFFFFF;rounded=0;" vertex="1" parent="HFd2KJPhhqKl3zKkZPLm-187">
          <mxGeometry y="154" width="140" height="26" as="geometry" />
        </mxCell>
        <mxCell id="HFd2KJPhhqKl3zKkZPLm-75" value="+ metal_cost: INT" style="text;strokeColor=none;fillColor=none;align=left;verticalAlign=top;spacingLeft=4;spacingRight=4;overflow=hidden;rotatable=0;points=[[0,0.5],[1,0.5]];portConstraint=eastwest;whiteSpace=wrap;html=1;labelBackgroundColor=none;fontColor=#FFFFFF;rounded=0;" vertex="1" parent="HFd2KJPhhqKl3zKkZPLm-187">
          <mxGeometry y="179" width="140" height="26" as="geometry" />
        </mxCell>
        <mxCell id="HFd2KJPhhqKl3zKkZPLm-76" value="+ deuterium_production: INT" style="text;strokeColor=none;fillColor=none;align=left;verticalAlign=top;spacingLeft=4;spacingRight=4;overflow=hidden;rotatable=0;points=[[0,0.5],[1,0.5]];portConstraint=eastwest;whiteSpace=wrap;html=1;labelBackgroundColor=none;fontColor=#FFFFFF;rounded=0;" vertex="1" parent="HFd2KJPhhqKl3zKkZPLm-187">
          <mxGeometry y="204" width="170" height="26" as="geometry" />
        </mxCell>
        <mxCell id="HFd2KJPhhqKl3zKkZPLm-77" value="+ energy_production: INT" style="text;strokeColor=none;fillColor=none;align=left;verticalAlign=top;spacingLeft=4;spacingRight=4;overflow=hidden;rotatable=0;points=[[0,0.5],[1,0.5]];portConstraint=eastwest;whiteSpace=wrap;html=1;labelBackgroundColor=none;fontColor=#FFFFFF;rounded=0;" vertex="1" parent="HFd2KJPhhqKl3zKkZPLm-187">
          <mxGeometry y="230" width="170" height="26" as="geometry" />
        </mxCell>
        <mxCell id="HFd2KJPhhqKl3zKkZPLm-78" value="+ metal_production: INT" style="text;strokeColor=none;fillColor=none;align=left;verticalAlign=top;spacingLeft=4;spacingRight=4;overflow=hidden;rotatable=0;points=[[0,0.5],[1,0.5]];portConstraint=eastwest;whiteSpace=wrap;html=1;labelBackgroundColor=none;fontColor=#FFFFFF;rounded=0;" vertex="1" parent="HFd2KJPhhqKl3zKkZPLm-187">
          <mxGeometry y="254" width="170" height="26" as="geometry" />
        </mxCell>
        <mxCell id="HFd2KJPhhqKl3zKkZPLm-79" value="+ attack: INT" style="text;strokeColor=none;fillColor=none;align=left;verticalAlign=top;spacingLeft=4;spacingRight=4;overflow=hidden;rotatable=0;points=[[0,0.5],[1,0.5]];portConstraint=eastwest;whiteSpace=wrap;html=1;labelBackgroundColor=none;fontColor=#FFFFFF;rounded=0;" vertex="1" parent="HFd2KJPhhqKl3zKkZPLm-187">
          <mxGeometry y="279" width="180" height="26" as="geometry" />
        </mxCell>
        <mxCell id="HFd2KJPhhqKl3zKkZPLm-80" value="+ defense: INT" style="text;strokeColor=none;fillColor=none;align=left;verticalAlign=top;spacingLeft=4;spacingRight=4;overflow=hidden;rotatable=0;points=[[0,0.5],[1,0.5]];portConstraint=eastwest;whiteSpace=wrap;html=1;labelBackgroundColor=none;fontColor=#FFFFFF;rounded=0;" vertex="1" parent="HFd2KJPhhqKl3zKkZPLm-187">
          <mxGeometry y="305" width="170" height="26" as="geometry" />
        </mxCell>
        <mxCell id="HFd2KJPhhqKl3zKkZPLm-188" value="" style="group;labelBackgroundColor=none;fontColor=#FFFFFF;rounded=0;" vertex="1" connectable="0" parent="1">
          <mxGeometry x="1940" y="475" width="200" height="320" as="geometry" />
        </mxCell>
        <mxCell id="HFd2KJPhhqKl3zKkZPLm-102" value="INFRASTRUCTURE_TYPES" style="swimlane;fontStyle=0;childLayout=stackLayout;horizontal=1;startSize=26;fillColor=none;horizontalStack=0;resizeParent=1;resizeParentMax=0;resizeLast=0;collapsible=1;marginBottom=0;whiteSpace=wrap;html=1;labelBackgroundColor=none;strokeColor=#FFFFFF;fontColor=#FFFFFF;rounded=0;" vertex="1" parent="HFd2KJPhhqKl3zKkZPLm-188">
          <mxGeometry width="200" height="320" as="geometry" />
        </mxCell>
        <mxCell id="HFd2KJPhhqKl3zKkZPLm-103" value="+ id: INT" style="text;strokeColor=none;fillColor=none;align=left;verticalAlign=top;spacingLeft=4;spacingRight=4;overflow=hidden;rotatable=0;points=[[0,0.5],[1,0.5]];portConstraint=eastwest;whiteSpace=wrap;html=1;labelBackgroundColor=none;fontColor=#FFFFFF;rounded=0;" vertex="1" parent="HFd2KJPhhqKl3zKkZPLm-102">
          <mxGeometry y="26" width="200" height="26" as="geometry" />
        </mxCell>
        <mxCell id="HFd2KJPhhqKl3zKkZPLm-104" value="+ name: String" style="text;strokeColor=none;fillColor=none;align=left;verticalAlign=top;spacingLeft=4;spacingRight=4;overflow=hidden;rotatable=0;points=[[0,0.5],[1,0.5]];portConstraint=eastwest;whiteSpace=wrap;html=1;labelBackgroundColor=none;fontColor=#FFFFFF;rounded=0;" vertex="1" parent="HFd2KJPhhqKl3zKkZPLm-102">
          <mxGeometry y="52" width="200" height="26" as="geometry" />
        </mxCell>
        <mxCell id="HFd2KJPhhqKl3zKkZPLm-105" value="+ building_time: INT" style="text;strokeColor=none;fillColor=none;align=left;verticalAlign=top;spacingLeft=4;spacingRight=4;overflow=hidden;rotatable=0;points=[[0,0.5],[1,0.5]];portConstraint=eastwest;whiteSpace=wrap;html=1;labelBackgroundColor=none;fontColor=#FFFFFF;rounded=0;" vertex="1" parent="HFd2KJPhhqKl3zKkZPLm-102">
          <mxGeometry y="78" width="200" height="242" as="geometry" />
        </mxCell>
        <mxCell id="HFd2KJPhhqKl3zKkZPLm-118" value="+ deuterium_cost: INT" style="text;strokeColor=none;fillColor=none;align=left;verticalAlign=top;spacingLeft=4;spacingRight=4;overflow=hidden;rotatable=0;points=[[0,0.5],[1,0.5]];portConstraint=eastwest;whiteSpace=wrap;html=1;labelBackgroundColor=none;fontColor=#FFFFFF;rounded=0;" vertex="1" parent="HFd2KJPhhqKl3zKkZPLm-188">
          <mxGeometry y="104" width="140" height="26" as="geometry" />
        </mxCell>
        <mxCell id="HFd2KJPhhqKl3zKkZPLm-119" value="+ energy_cost: INT" style="text;strokeColor=none;fillColor=none;align=left;verticalAlign=top;spacingLeft=4;spacingRight=4;overflow=hidden;rotatable=0;points=[[0,0.5],[1,0.5]];portConstraint=eastwest;whiteSpace=wrap;html=1;labelBackgroundColor=none;fontColor=#FFFFFF;rounded=0;" vertex="1" parent="HFd2KJPhhqKl3zKkZPLm-188">
          <mxGeometry y="130" width="140" height="26" as="geometry" />
        </mxCell>
        <mxCell id="HFd2KJPhhqKl3zKkZPLm-120" value="+ metal_cost: INT" style="text;strokeColor=none;fillColor=none;align=left;verticalAlign=top;spacingLeft=4;spacingRight=4;overflow=hidden;rotatable=0;points=[[0,0.5],[1,0.5]];portConstraint=eastwest;whiteSpace=wrap;html=1;labelBackgroundColor=none;fontColor=#FFFFFF;rounded=0;" vertex="1" parent="HFd2KJPhhqKl3zKkZPLm-188">
          <mxGeometry y="156" width="140" height="26" as="geometry" />
        </mxCell>
        <mxCell id="HFd2KJPhhqKl3zKkZPLm-121" value="+ deuterium_production: INT" style="text;strokeColor=none;fillColor=none;align=left;verticalAlign=top;spacingLeft=4;spacingRight=4;overflow=hidden;rotatable=0;points=[[0,0.5],[1,0.5]];portConstraint=eastwest;whiteSpace=wrap;html=1;labelBackgroundColor=none;fontColor=#FFFFFF;rounded=0;" vertex="1" parent="HFd2KJPhhqKl3zKkZPLm-188">
          <mxGeometry y="182" width="170" height="26" as="geometry" />
        </mxCell>
        <mxCell id="HFd2KJPhhqKl3zKkZPLm-122" value="+ energy_production: INT" style="text;strokeColor=none;fillColor=none;align=left;verticalAlign=top;spacingLeft=4;spacingRight=4;overflow=hidden;rotatable=0;points=[[0,0.5],[1,0.5]];portConstraint=eastwest;whiteSpace=wrap;html=1;labelBackgroundColor=none;fontColor=#FFFFFF;rounded=0;" vertex="1" parent="HFd2KJPhhqKl3zKkZPLm-188">
          <mxGeometry y="208" width="160" height="26" as="geometry" />
        </mxCell>
        <mxCell id="HFd2KJPhhqKl3zKkZPLm-123" value="+ metal_production: INT" style="text;strokeColor=none;fillColor=none;align=left;verticalAlign=top;spacingLeft=4;spacingRight=4;overflow=hidden;rotatable=0;points=[[0,0.5],[1,0.5]];portConstraint=eastwest;whiteSpace=wrap;html=1;labelBackgroundColor=none;fontColor=#FFFFFF;rounded=0;" vertex="1" parent="HFd2KJPhhqKl3zKkZPLm-188">
          <mxGeometry y="234" width="150" height="26" as="geometry" />
        </mxCell>
        <mxCell id="HFd2KJPhhqKl3zKkZPLm-124" value="+ attack: INT" style="text;strokeColor=none;fillColor=none;align=left;verticalAlign=top;spacingLeft=4;spacingRight=4;overflow=hidden;rotatable=0;points=[[0,0.5],[1,0.5]];portConstraint=eastwest;whiteSpace=wrap;html=1;labelBackgroundColor=none;fontColor=#FFFFFF;rounded=0;" vertex="1" parent="HFd2KJPhhqKl3zKkZPLm-188">
          <mxGeometry y="262" width="140" height="26" as="geometry" />
        </mxCell>
        <mxCell id="HFd2KJPhhqKl3zKkZPLm-125" value="+ defense: INT" style="text;strokeColor=none;fillColor=none;align=left;verticalAlign=top;spacingLeft=4;spacingRight=4;overflow=hidden;rotatable=0;points=[[0,0.5],[1,0.5]];portConstraint=eastwest;whiteSpace=wrap;html=1;labelBackgroundColor=none;fontColor=#FFFFFF;rounded=0;" vertex="1" parent="HFd2KJPhhqKl3zKkZPLm-188">
          <mxGeometry y="288" width="140" height="26" as="geometry" />
        </mxCell>
        <mxCell id="HFd2KJPhhqKl3zKkZPLm-189" value="UNIVERSES" style="swimlane;fontStyle=0;childLayout=stackLayout;horizontal=1;startSize=26;fillColor=none;horizontalStack=0;resizeParent=1;resizeParentMax=0;resizeLast=0;collapsible=1;marginBottom=0;whiteSpace=wrap;html=1;labelBackgroundColor=none;strokeColor=#FFFFFF;fontColor=#FFFFFF;rounded=0;" vertex="1" parent="1">
          <mxGeometry x="800" y="127" width="140" height="78" as="geometry" />
        </mxCell>
        <mxCell id="HFd2KJPhhqKl3zKkZPLm-190" value="+ id: INT" style="text;strokeColor=none;fillColor=none;align=left;verticalAlign=top;spacingLeft=4;spacingRight=4;overflow=hidden;rotatable=0;points=[[0,0.5],[1,0.5]];portConstraint=eastwest;whiteSpace=wrap;html=1;labelBackgroundColor=none;fontColor=#FFFFFF;rounded=0;" vertex="1" parent="HFd2KJPhhqKl3zKkZPLm-189">
          <mxGeometry y="26" width="140" height="26" as="geometry" />
        </mxCell>
        <mxCell id="HFd2KJPhhqKl3zKkZPLm-191" value="+ name; String" style="text;strokeColor=none;fillColor=none;align=left;verticalAlign=top;spacingLeft=4;spacingRight=4;overflow=hidden;rotatable=0;points=[[0,0.5],[1,0.5]];portConstraint=eastwest;whiteSpace=wrap;html=1;labelBackgroundColor=none;fontColor=#FFFFFF;rounded=0;" vertex="1" parent="HFd2KJPhhqKl3zKkZPLm-189">
          <mxGeometry y="52" width="140" height="26" as="geometry" />
        </mxCell>
        <mxCell id="HFd2KJPhhqKl3zKkZPLm-197" style="edgeStyle=orthogonalEdgeStyle;rounded=0;orthogonalLoop=1;jettySize=auto;html=1;exitX=0;exitY=0.5;exitDx=0;exitDy=0;entryX=-0.008;entryY=0.067;entryDx=0;entryDy=0;entryPerimeter=0;endArrow=none;endFill=0;labelBackgroundColor=none;strokeColor=#23445D;fontColor=default;" edge="1" parent="1" source="HFd2KJPhhqKl3zKkZPLm-254" target="HFd2KJPhhqKl3zKkZPLm-198">
          <mxGeometry relative="1" as="geometry">
            <Array as="points">
              <mxPoint x="643" y="170" />
              <mxPoint x="580" y="170" />
            </Array>
          </mxGeometry>
        </mxCell>
        <mxCell id="HFd2KJPhhqKl3zKkZPLm-198" value="1,1" style="text;html=1;align=center;verticalAlign=middle;resizable=0;points=[];autosize=1;strokeColor=none;fillColor=none;labelBackgroundColor=none;fontColor=#FFFFFF;rounded=0;" vertex="1" parent="1">
          <mxGeometry x="580" y="170" width="40" height="30" as="geometry" />
        </mxCell>
        <mxCell id="HFd2KJPhhqKl3zKkZPLm-199" value="1, N" style="text;html=1;align=center;verticalAlign=middle;resizable=0;points=[];autosize=1;strokeColor=none;fillColor=none;labelBackgroundColor=none;fontColor=#FFFFFF;rounded=0;" vertex="1" parent="1">
          <mxGeometry x="750" y="170" width="50" height="30" as="geometry" />
        </mxCell>
        <mxCell id="HFd2KJPhhqKl3zKkZPLm-200" style="edgeStyle=orthogonalEdgeStyle;rounded=0;orthogonalLoop=1;jettySize=auto;html=1;exitX=1;exitY=0.5;exitDx=0;exitDy=0;entryX=0;entryY=0.5;entryDx=0;entryDy=0;endArrow=none;endFill=0;labelBackgroundColor=none;strokeColor=#23445D;fontColor=default;" edge="1" parent="1" source="HFd2KJPhhqKl3zKkZPLm-259" target="HFd2KJPhhqKl3zKkZPLm-194">
          <mxGeometry relative="1" as="geometry" />
        </mxCell>
        <mxCell id="HFd2KJPhhqKl3zKkZPLm-201" value="1,N" style="text;html=1;align=center;verticalAlign=middle;resizable=0;points=[];autosize=1;strokeColor=none;fillColor=none;labelBackgroundColor=none;fontColor=#FFFFFF;rounded=0;" vertex="1" parent="1">
          <mxGeometry x="940" y="168" width="40" height="30" as="geometry" />
        </mxCell>
        <mxCell id="HFd2KJPhhqKl3zKkZPLm-202" value="1,1" style="text;html=1;align=center;verticalAlign=middle;resizable=0;points=[];autosize=1;strokeColor=none;fillColor=none;labelBackgroundColor=none;fontColor=#FFFFFF;rounded=0;" vertex="1" parent="1">
          <mxGeometry x="1100" y="168" width="40" height="30" as="geometry" />
        </mxCell>
        <mxCell id="HFd2KJPhhqKl3zKkZPLm-204" style="edgeStyle=orthogonalEdgeStyle;rounded=0;orthogonalLoop=1;jettySize=auto;html=1;endArrow=none;endFill=0;labelBackgroundColor=none;strokeColor=#23445D;fontColor=default;" edge="1" parent="1" source="HFd2KJPhhqKl3zKkZPLm-261" target="HFd2KJPhhqKl3zKkZPLm-55">
          <mxGeometry relative="1" as="geometry" />
        </mxCell>
        <mxCell id="HFd2KJPhhqKl3zKkZPLm-193" value="GALAXIES" style="swimlane;fontStyle=0;childLayout=stackLayout;horizontal=1;startSize=26;fillColor=none;horizontalStack=0;resizeParent=1;resizeParentMax=0;resizeLast=0;collapsible=1;marginBottom=0;whiteSpace=wrap;html=1;labelBackgroundColor=none;strokeColor=#FFFFFF;fontColor=#FFFFFF;rounded=0;" vertex="1" parent="1">
          <mxGeometry x="1140" y="127" width="140" height="78" as="geometry" />
        </mxCell>
        <mxCell id="HFd2KJPhhqKl3zKkZPLm-194" value="+ id: INT" style="text;strokeColor=none;fillColor=none;align=left;verticalAlign=top;spacingLeft=4;spacingRight=4;overflow=hidden;rotatable=0;points=[[0,0.5],[1,0.5]];portConstraint=eastwest;whiteSpace=wrap;html=1;labelBackgroundColor=none;fontColor=#FFFFFF;rounded=0;" vertex="1" parent="HFd2KJPhhqKl3zKkZPLm-193">
          <mxGeometry y="26" width="140" height="26" as="geometry" />
        </mxCell>
        <mxCell id="HFd2KJPhhqKl3zKkZPLm-195" value="+ name: String" style="text;strokeColor=none;fillColor=none;align=left;verticalAlign=top;spacingLeft=4;spacingRight=4;overflow=hidden;rotatable=0;points=[[0,0.5],[1,0.5]];portConstraint=eastwest;whiteSpace=wrap;html=1;labelBackgroundColor=none;fontColor=#FFFFFF;rounded=0;" vertex="1" parent="HFd2KJPhhqKl3zKkZPLm-193">
          <mxGeometry y="52" width="140" height="26" as="geometry" />
        </mxCell>
        <mxCell id="HFd2KJPhhqKl3zKkZPLm-205" value="1,N" style="text;html=1;align=center;verticalAlign=middle;resizable=0;points=[];autosize=1;strokeColor=none;fillColor=none;labelBackgroundColor=none;fontColor=#FFFFFF;rounded=0;" vertex="1" parent="1">
          <mxGeometry x="1170" y="205" width="40" height="30" as="geometry" />
        </mxCell>
        <mxCell id="HFd2KJPhhqKl3zKkZPLm-206" value="1,1" style="text;html=1;align=center;verticalAlign=middle;resizable=0;points=[];autosize=1;strokeColor=none;fillColor=none;labelBackgroundColor=none;fontColor=#FFFFFF;rounded=0;" vertex="1" parent="1">
          <mxGeometry x="1170" y="300" width="40" height="30" as="geometry" />
        </mxCell>
        <mxCell id="HFd2KJPhhqKl3zKkZPLm-208" value="1,N" style="text;html=1;align=center;verticalAlign=middle;resizable=0;points=[];autosize=1;strokeColor=none;fillColor=none;labelBackgroundColor=none;fontColor=#FFFFFF;rounded=0;" vertex="1" parent="1">
          <mxGeometry x="1170" y="434" width="40" height="30" as="geometry" />
        </mxCell>
        <mxCell id="HFd2KJPhhqKl3zKkZPLm-210" value="1,1" style="text;html=1;align=center;verticalAlign=middle;resizable=0;points=[];autosize=1;strokeColor=none;fillColor=none;labelBackgroundColor=none;fontColor=#FFFFFF;rounded=0;" vertex="1" parent="1">
          <mxGeometry x="1170" y="540" width="40" height="30" as="geometry" />
        </mxCell>
        <mxCell id="HFd2KJPhhqKl3zKkZPLm-211" style="edgeStyle=orthogonalEdgeStyle;rounded=0;orthogonalLoop=1;jettySize=auto;html=1;entryX=0.5;entryY=0;entryDx=0;entryDy=0;endArrow=none;endFill=0;labelBackgroundColor=none;strokeColor=#23445D;fontColor=default;" edge="1" parent="1" source="HFd2KJPhhqKl3zKkZPLm-59" target="HFd2KJPhhqKl3zKkZPLm-127">
          <mxGeometry relative="1" as="geometry" />
        </mxCell>
        <mxCell id="HFd2KJPhhqKl3zKkZPLm-212" value="1,1" style="text;html=1;align=center;verticalAlign=middle;resizable=0;points=[];autosize=1;strokeColor=none;fillColor=none;labelBackgroundColor=none;fontColor=#FFFFFF;rounded=0;" vertex="1" parent="1">
          <mxGeometry x="1170" y="710" width="40" height="30" as="geometry" />
        </mxCell>
        <mxCell id="HFd2KJPhhqKl3zKkZPLm-214" value="1,1" style="text;html=1;align=center;verticalAlign=middle;resizable=0;points=[];autosize=1;strokeColor=none;fillColor=none;labelBackgroundColor=none;fontColor=#FFFFFF;rounded=0;" vertex="1" parent="1">
          <mxGeometry x="1170" y="840" width="40" height="30" as="geometry" />
        </mxCell>
        <mxCell id="HFd2KJPhhqKl3zKkZPLm-216" style="edgeStyle=orthogonalEdgeStyle;rounded=0;orthogonalLoop=1;jettySize=auto;html=1;entryX=1;entryY=0.5;entryDx=0;entryDy=0;endArrow=none;endFill=0;labelBackgroundColor=none;strokeColor=#23445D;fontColor=default;" edge="1" parent="1" source="HFd2KJPhhqKl3zKkZPLm-64" target="HFd2KJPhhqKl3zKkZPLm-61">
          <mxGeometry relative="1" as="geometry" />
        </mxCell>
        <mxCell id="HFd2KJPhhqKl3zKkZPLm-217" style="edgeStyle=orthogonalEdgeStyle;rounded=0;orthogonalLoop=1;jettySize=auto;html=1;endArrow=none;endFill=0;labelBackgroundColor=none;strokeColor=#23445D;fontColor=default;" edge="1" parent="1" source="HFd2KJPhhqKl3zKkZPLm-102" target="HFd2KJPhhqKl3zKkZPLm-64">
          <mxGeometry relative="1" as="geometry" />
        </mxCell>
        <mxCell id="HFd2KJPhhqKl3zKkZPLm-218" value="0,N" style="text;html=1;align=center;verticalAlign=middle;resizable=0;points=[];autosize=1;strokeColor=none;fillColor=none;labelBackgroundColor=none;fontColor=#FFFFFF;rounded=0;" vertex="1" parent="1">
          <mxGeometry x="1280" y="640" width="40" height="30" as="geometry" />
        </mxCell>
        <mxCell id="HFd2KJPhhqKl3zKkZPLm-219" value="1,1" style="text;html=1;align=center;verticalAlign=middle;resizable=0;points=[];autosize=1;strokeColor=none;fillColor=none;labelBackgroundColor=none;fontColor=#FFFFFF;rounded=0;" vertex="1" parent="1">
          <mxGeometry x="1510" y="640" width="40" height="30" as="geometry" />
        </mxCell>
        <mxCell id="HFd2KJPhhqKl3zKkZPLm-220" value="1,1" style="text;html=1;align=center;verticalAlign=middle;resizable=0;points=[];autosize=1;strokeColor=none;fillColor=none;labelBackgroundColor=none;fontColor=#FFFFFF;rounded=0;" vertex="1" parent="1">
          <mxGeometry x="1730" y="640" width="40" height="30" as="geometry" />
        </mxCell>
        <mxCell id="HFd2KJPhhqKl3zKkZPLm-221" value="0,N" style="text;html=1;align=center;verticalAlign=middle;resizable=0;points=[];autosize=1;strokeColor=none;fillColor=none;labelBackgroundColor=none;fontColor=#FFFFFF;rounded=0;" vertex="1" parent="1">
          <mxGeometry x="1900" y="640" width="40" height="30" as="geometry" />
        </mxCell>
        <mxCell id="HFd2KJPhhqKl3zKkZPLm-222" style="edgeStyle=orthogonalEdgeStyle;rounded=0;orthogonalLoop=1;jettySize=auto;html=1;entryX=0;entryY=0.5;entryDx=0;entryDy=0;endArrow=none;endFill=0;labelBackgroundColor=none;strokeColor=#23445D;fontColor=default;" edge="1" parent="1" source="HFd2KJPhhqKl3zKkZPLm-132" target="HFd2KJPhhqKl3zKkZPLm-44">
          <mxGeometry relative="1" as="geometry">
            <mxPoint x="160" y="310" as="targetPoint" />
            <Array as="points">
              <mxPoint x="160" y="360" />
              <mxPoint x="161" y="306" />
            </Array>
          </mxGeometry>
        </mxCell>
        <mxCell id="HFd2KJPhhqKl3zKkZPLm-223" value="1,1" style="text;html=1;align=center;verticalAlign=middle;resizable=0;points=[];autosize=1;strokeColor=none;fillColor=none;labelBackgroundColor=none;fontColor=#FFFFFF;rounded=0;" vertex="1" parent="1">
          <mxGeometry x="160" y="404" width="40" height="30" as="geometry" />
        </mxCell>
        <mxCell id="HFd2KJPhhqKl3zKkZPLm-224" value="1,1" style="text;html=1;align=center;verticalAlign=middle;resizable=0;points=[];autosize=1;strokeColor=none;fillColor=none;labelBackgroundColor=none;fontColor=#FFFFFF;rounded=0;" vertex="1" parent="1">
          <mxGeometry x="380" y="310" width="40" height="30" as="geometry" />
        </mxCell>
        <mxCell id="HFd2KJPhhqKl3zKkZPLm-225" style="edgeStyle=orthogonalEdgeStyle;rounded=0;orthogonalLoop=1;jettySize=auto;html=1;exitX=0.5;exitY=0;exitDx=0;exitDy=0;endArrow=none;endFill=0;labelBackgroundColor=none;strokeColor=#23445D;fontColor=default;" edge="1" parent="1" source="HFd2KJPhhqKl3zKkZPLm-267" target="HFd2KJPhhqKl3zKkZPLm-132">
          <mxGeometry relative="1" as="geometry" />
        </mxCell>
        <mxCell id="HFd2KJPhhqKl3zKkZPLm-226" value="0,N" style="text;html=1;align=center;verticalAlign=middle;resizable=0;points=[];autosize=1;strokeColor=none;fillColor=none;labelBackgroundColor=none;fontColor=#FFFFFF;rounded=0;" vertex="1" parent="1">
          <mxGeometry x="160" y="765" width="40" height="30" as="geometry" />
        </mxCell>
        <mxCell id="HFd2KJPhhqKl3zKkZPLm-227" value="1,1" style="text;html=1;align=center;verticalAlign=middle;resizable=0;points=[];autosize=1;strokeColor=none;fillColor=none;labelBackgroundColor=none;fontColor=#FFFFFF;rounded=0;" vertex="1" parent="1">
          <mxGeometry x="160" y="630" width="40" height="30" as="geometry" />
        </mxCell>
        <mxCell id="HFd2KJPhhqKl3zKkZPLm-228" style="edgeStyle=orthogonalEdgeStyle;rounded=0;orthogonalLoop=1;jettySize=auto;html=1;exitX=0.5;exitY=0;exitDx=0;exitDy=0;endArrow=none;endFill=0;labelBackgroundColor=none;strokeColor=#23445D;fontColor=default;" edge="1" parent="1" source="HFd2KJPhhqKl3zKkZPLm-257" target="HFd2KJPhhqKl3zKkZPLm-146">
          <mxGeometry relative="1" as="geometry" />
        </mxCell>
        <mxCell id="HFd2KJPhhqKl3zKkZPLm-229" value="1,N" style="text;html=1;align=center;verticalAlign=middle;resizable=0;points=[];autosize=1;strokeColor=none;fillColor=none;labelBackgroundColor=none;fontColor=#FFFFFF;rounded=0;" vertex="1" parent="1">
          <mxGeometry x="500" y="680" width="40" height="30" as="geometry" />
        </mxCell>
        <mxCell id="HFd2KJPhhqKl3zKkZPLm-230" value="1,1" style="text;html=1;align=center;verticalAlign=middle;resizable=0;points=[];autosize=1;strokeColor=none;fillColor=none;labelBackgroundColor=none;fontColor=#FFFFFF;rounded=0;" vertex="1" parent="1">
          <mxGeometry x="690" y="801" width="40" height="30" as="geometry" />
        </mxCell>
        <mxCell id="HFd2KJPhhqKl3zKkZPLm-231" style="edgeStyle=orthogonalEdgeStyle;rounded=0;orthogonalLoop=1;jettySize=auto;html=1;exitX=0.5;exitY=0;exitDx=0;exitDy=0;endArrow=none;endFill=0;labelBackgroundColor=none;strokeColor=#23445D;fontColor=default;" edge="1" parent="1" source="HFd2KJPhhqKl3zKkZPLm-269" target="HFd2KJPhhqKl3zKkZPLm-152">
          <mxGeometry relative="1" as="geometry" />
        </mxCell>
        <mxCell id="HFd2KJPhhqKl3zKkZPLm-232" value="0,N" style="text;html=1;align=center;verticalAlign=middle;resizable=0;points=[];autosize=1;strokeColor=none;fillColor=none;labelBackgroundColor=none;fontColor=#FFFFFF;rounded=0;" vertex="1" parent="1">
          <mxGeometry x="695" y="1120" width="40" height="30" as="geometry" />
        </mxCell>
        <mxCell id="HFd2KJPhhqKl3zKkZPLm-233" value="1,1" style="text;html=1;align=center;verticalAlign=middle;resizable=0;points=[];autosize=1;strokeColor=none;fillColor=none;labelBackgroundColor=none;fontColor=#FFFFFF;rounded=0;" vertex="1" parent="1">
          <mxGeometry x="690" y="1001" width="40" height="30" as="geometry" />
        </mxCell>
        <mxCell id="HFd2KJPhhqKl3zKkZPLm-234" style="edgeStyle=orthogonalEdgeStyle;rounded=0;orthogonalLoop=1;jettySize=auto;html=1;exitX=0.5;exitY=0;exitDx=0;exitDy=0;endArrow=none;endFill=0;labelBackgroundColor=none;strokeColor=#23445D;fontColor=default;" edge="1" parent="1" source="HFd2KJPhhqKl3zKkZPLm-246" target="HFd2KJPhhqKl3zKkZPLm-33">
          <mxGeometry relative="1" as="geometry" />
        </mxCell>
        <mxCell id="HFd2KJPhhqKl3zKkZPLm-235" style="edgeStyle=orthogonalEdgeStyle;rounded=0;orthogonalLoop=1;jettySize=auto;html=1;exitX=0;exitY=0.5;exitDx=0;exitDy=0;entryX=1;entryY=0.5;entryDx=0;entryDy=0;endArrow=none;endFill=0;labelBackgroundColor=none;strokeColor=#23445D;fontColor=default;" edge="1" parent="1" source="HFd2KJPhhqKl3zKkZPLm-61" target="HFd2KJPhhqKl3zKkZPLm-36">
          <mxGeometry relative="1" as="geometry">
            <mxPoint x="880" y="280" as="targetPoint" />
            <Array as="points">
              <mxPoint x="880" y="635" />
              <mxPoint x="880" y="300" />
              <mxPoint x="640" y="300" />
              <mxPoint x="640" y="259" />
            </Array>
          </mxGeometry>
        </mxCell>
        <mxCell id="HFd2KJPhhqKl3zKkZPLm-236" value="1,1" style="text;html=1;align=center;verticalAlign=middle;resizable=0;points=[];autosize=1;strokeColor=none;fillColor=none;labelBackgroundColor=none;fontColor=#FFFFFF;rounded=0;" vertex="1" parent="1">
          <mxGeometry x="1100" y="640" width="40" height="30" as="geometry" />
        </mxCell>
        <mxCell id="HFd2KJPhhqKl3zKkZPLm-237" value="1,N" style="text;html=1;align=center;verticalAlign=middle;resizable=0;points=[];autosize=1;strokeColor=none;fillColor=none;labelBackgroundColor=none;fontColor=#FFFFFF;rounded=0;" vertex="1" parent="1">
          <mxGeometry x="580" y="262" width="40" height="30" as="geometry" />
        </mxCell>
        <mxCell id="HFd2KJPhhqKl3zKkZPLm-239" value="1,N" style="text;html=1;align=center;verticalAlign=middle;resizable=0;points=[];autosize=1;strokeColor=none;fillColor=none;labelBackgroundColor=none;fontColor=#FFFFFF;rounded=0;" vertex="1" parent="1">
          <mxGeometry x="505" y="360" width="40" height="30" as="geometry" />
        </mxCell>
        <mxCell id="HFd2KJPhhqKl3zKkZPLm-240" value="1,1" style="text;html=1;align=center;verticalAlign=middle;resizable=0;points=[];autosize=1;strokeColor=none;fillColor=none;labelBackgroundColor=none;fontColor=#FFFFFF;rounded=0;" vertex="1" parent="1">
          <mxGeometry x="500" y="475" width="40" height="30" as="geometry" />
        </mxCell>
        <mxCell id="HFd2KJPhhqKl3zKkZPLm-247" value="" style="edgeStyle=orthogonalEdgeStyle;rounded=0;orthogonalLoop=1;jettySize=auto;html=1;exitX=0.5;exitY=0;exitDx=0;exitDy=0;endArrow=none;endFill=0;labelBackgroundColor=none;strokeColor=#23445D;fontColor=default;" edge="1" parent="1" source="HFd2KJPhhqKl3zKkZPLm-146" target="HFd2KJPhhqKl3zKkZPLm-246">
          <mxGeometry relative="1" as="geometry">
            <mxPoint x="500" y="510" as="sourcePoint" />
            <mxPoint x="500" y="360" as="targetPoint" />
          </mxGeometry>
        </mxCell>
        <mxCell id="HFd2KJPhhqKl3zKkZPLm-246" value="Contrôler" style="ellipse;whiteSpace=wrap;html=1;labelBackgroundColor=none;fillColor=#182E3E;strokeColor=#FFFFFF;fontColor=#FFFFFF;rounded=0;" vertex="1" parent="1">
          <mxGeometry x="447.5" y="394.5" width="105" height="60" as="geometry" />
        </mxCell>
        <mxCell id="HFd2KJPhhqKl3zKkZPLm-248" value="Administrer" style="ellipse;whiteSpace=wrap;html=1;labelBackgroundColor=none;fillColor=#182E3E;strokeColor=#FFFFFF;fontColor=#FFFFFF;rounded=0;" vertex="1" parent="1">
          <mxGeometry x="830" y="408" width="100" height="56" as="geometry" />
        </mxCell>
        <mxCell id="HFd2KJPhhqKl3zKkZPLm-253" value="" style="edgeStyle=orthogonalEdgeStyle;rounded=0;orthogonalLoop=1;jettySize=auto;html=1;exitX=1;exitY=0.5;exitDx=0;exitDy=0;entryX=0;entryY=0.5;entryDx=0;entryDy=0;endArrow=none;endFill=0;labelBackgroundColor=none;strokeColor=#23445D;fontColor=default;" edge="1" parent="1" source="HFd2KJPhhqKl3zKkZPLm-30" target="HFd2KJPhhqKl3zKkZPLm-252">
          <mxGeometry relative="1" as="geometry">
            <mxPoint x="420" y="206" as="targetPoint" />
            <mxPoint x="220" y="205" as="sourcePoint" />
          </mxGeometry>
        </mxCell>
        <mxCell id="HFd2KJPhhqKl3zKkZPLm-252" value="Diriger" style="ellipse;whiteSpace=wrap;html=1;labelBackgroundColor=none;fillColor=#182E3E;strokeColor=#FFFFFF;fontColor=#FFFFFF;rounded=0;" vertex="1" parent="1">
          <mxGeometry x="280" y="180" width="80" height="50" as="geometry" />
        </mxCell>
        <mxCell id="HFd2KJPhhqKl3zKkZPLm-255" value="" style="edgeStyle=orthogonalEdgeStyle;rounded=0;orthogonalLoop=1;jettySize=auto;html=1;exitX=0;exitY=0.5;exitDx=0;exitDy=0;entryX=1.002;entryY=0.35;entryDx=0;entryDy=0;entryPerimeter=0;endArrow=none;endFill=0;labelBackgroundColor=none;strokeColor=#23445D;fontColor=default;" edge="1" parent="1" source="HFd2KJPhhqKl3zKkZPLm-190" target="HFd2KJPhhqKl3zKkZPLm-254">
          <mxGeometry relative="1" as="geometry">
            <mxPoint x="800" y="166" as="sourcePoint" />
            <mxPoint x="580" y="229" as="targetPoint" />
            <Array as="points">
              <mxPoint x="800" y="170" />
            </Array>
          </mxGeometry>
        </mxCell>
        <mxCell id="HFd2KJPhhqKl3zKkZPLm-254" value="Composer" style="ellipse;whiteSpace=wrap;html=1;labelBackgroundColor=none;fillColor=#182E3E;strokeColor=#FFFFFF;fontColor=#FFFFFF;rounded=0;" vertex="1" parent="1">
          <mxGeometry x="642.5" y="147" width="95" height="51" as="geometry" />
        </mxCell>
        <mxCell id="HFd2KJPhhqKl3zKkZPLm-256" value="Effectuer" style="ellipse;whiteSpace=wrap;html=1;labelBackgroundColor=none;fillColor=#182E3E;strokeColor=#FFFFFF;fontColor=#FFFFFF;rounded=0;" vertex="1" parent="1">
          <mxGeometry x="240" y="285" width="90" height="45" as="geometry" />
        </mxCell>
        <mxCell id="HFd2KJPhhqKl3zKkZPLm-258" value="" style="edgeStyle=orthogonalEdgeStyle;rounded=0;orthogonalLoop=1;jettySize=auto;html=1;exitX=0.5;exitY=0;exitDx=0;exitDy=0;endArrow=none;endFill=0;labelBackgroundColor=none;strokeColor=#23445D;fontColor=default;" edge="1" parent="1" source="HFd2KJPhhqKl3zKkZPLm-152" target="HFd2KJPhhqKl3zKkZPLm-257">
          <mxGeometry relative="1" as="geometry">
            <mxPoint x="690" y="831" as="sourcePoint" />
            <mxPoint x="500" y="680" as="targetPoint" />
          </mxGeometry>
        </mxCell>
        <mxCell id="HFd2KJPhhqKl3zKkZPLm-257" value="Constituer" style="ellipse;whiteSpace=wrap;html=1;labelBackgroundColor=none;fillColor=#182E3E;strokeColor=#FFFFFF;fontColor=#FFFFFF;rounded=0;" vertex="1" parent="1">
          <mxGeometry x="445" y="727" width="110" height="60" as="geometry" />
        </mxCell>
        <mxCell id="HFd2KJPhhqKl3zKkZPLm-260" value="" style="edgeStyle=orthogonalEdgeStyle;rounded=0;orthogonalLoop=1;jettySize=auto;html=1;exitX=1;exitY=0.5;exitDx=0;exitDy=0;entryX=0;entryY=0.5;entryDx=0;entryDy=0;endArrow=none;endFill=0;labelBackgroundColor=none;strokeColor=#23445D;fontColor=default;" edge="1" parent="1" source="HFd2KJPhhqKl3zKkZPLm-190" target="HFd2KJPhhqKl3zKkZPLm-259">
          <mxGeometry relative="1" as="geometry">
            <mxPoint x="940" y="166" as="sourcePoint" />
            <mxPoint x="1140" y="166" as="targetPoint" />
          </mxGeometry>
        </mxCell>
        <mxCell id="HFd2KJPhhqKl3zKkZPLm-259" value="Diviser" style="ellipse;whiteSpace=wrap;html=1;labelBackgroundColor=none;fillColor=#182E3E;strokeColor=#FFFFFF;fontColor=#FFFFFF;rounded=0;" vertex="1" parent="1">
          <mxGeometry x="990" y="140" width="100" height="54" as="geometry" />
        </mxCell>
        <mxCell id="HFd2KJPhhqKl3zKkZPLm-262" value="" style="edgeStyle=orthogonalEdgeStyle;rounded=0;orthogonalLoop=1;jettySize=auto;html=1;endArrow=none;endFill=0;labelBackgroundColor=none;strokeColor=#23445D;fontColor=default;" edge="1" parent="1" source="HFd2KJPhhqKl3zKkZPLm-193" target="HFd2KJPhhqKl3zKkZPLm-261">
          <mxGeometry relative="1" as="geometry">
            <mxPoint x="1210" y="205" as="sourcePoint" />
            <mxPoint x="1210" y="330" as="targetPoint" />
          </mxGeometry>
        </mxCell>
        <mxCell id="HFd2KJPhhqKl3zKkZPLm-261" value="Réunir" style="ellipse;whiteSpace=wrap;html=1;labelBackgroundColor=none;fillColor=#182E3E;strokeColor=#FFFFFF;fontColor=#FFFFFF;rounded=0;" vertex="1" parent="1">
          <mxGeometry x="1160" y="244" width="100" height="48" as="geometry" />
        </mxCell>
        <mxCell id="HFd2KJPhhqKl3zKkZPLm-263" value="Former" style="ellipse;whiteSpace=wrap;html=1;labelBackgroundColor=none;fillColor=#182E3E;strokeColor=#FFFFFF;fontColor=#FFFFFF;rounded=0;" vertex="1" parent="1">
          <mxGeometry x="1160" y="475" width="100" height="50" as="geometry" />
        </mxCell>
        <mxCell id="HFd2KJPhhqKl3zKkZPLm-264" value="Abriter" style="ellipse;whiteSpace=wrap;html=1;labelBackgroundColor=none;fillColor=#182E3E;strokeColor=#FFFFFF;fontColor=#FFFFFF;rounded=0;" vertex="1" parent="1">
          <mxGeometry x="1350" y="602.5" width="110" height="65" as="geometry" />
        </mxCell>
        <mxCell id="HFd2KJPhhqKl3zKkZPLm-265" value="Produire" style="ellipse;whiteSpace=wrap;html=1;labelBackgroundColor=none;fillColor=#182E3E;strokeColor=#FFFFFF;fontColor=#FFFFFF;rounded=0;" vertex="1" parent="1">
          <mxGeometry x="1150" y="765" width="120" height="60" as="geometry" />
        </mxCell>
        <mxCell id="HFd2KJPhhqKl3zKkZPLm-266" value="Catégoriser" style="ellipse;whiteSpace=wrap;html=1;labelBackgroundColor=none;fillColor=#182E3E;strokeColor=#FFFFFF;fontColor=#FFFFFF;rounded=0;" vertex="1" parent="1">
          <mxGeometry x="1790" y="605" width="100" height="60" as="geometry" />
        </mxCell>
        <mxCell id="HFd2KJPhhqKl3zKkZPLm-268" value="" style="edgeStyle=orthogonalEdgeStyle;rounded=0;orthogonalLoop=1;jettySize=auto;html=1;exitX=0.5;exitY=0;exitDx=0;exitDy=0;endArrow=none;endFill=0;labelBackgroundColor=none;strokeColor=#23445D;fontColor=default;" edge="1" parent="1" source="HFd2KJPhhqKl3zKkZPLm-139" target="HFd2KJPhhqKl3zKkZPLm-267">
          <mxGeometry relative="1" as="geometry">
            <mxPoint x="160" y="795" as="sourcePoint" />
            <mxPoint x="160" y="630" as="targetPoint" />
          </mxGeometry>
        </mxCell>
        <mxCell id="HFd2KJPhhqKl3zKkZPLm-267" value="Posséder" style="ellipse;whiteSpace=wrap;html=1;labelBackgroundColor=none;fillColor=#182E3E;strokeColor=#FFFFFF;fontColor=#FFFFFF;rounded=0;" vertex="1" parent="1">
          <mxGeometry x="102.5" y="680" width="115" height="50" as="geometry" />
        </mxCell>
        <mxCell id="HFd2KJPhhqKl3zKkZPLm-270" value="" style="edgeStyle=orthogonalEdgeStyle;rounded=0;orthogonalLoop=1;jettySize=auto;html=1;exitX=0.5;exitY=0;exitDx=0;exitDy=0;endArrow=none;endFill=0;labelBackgroundColor=none;strokeColor=#23445D;fontColor=default;" edge="1" parent="1" source="HFd2KJPhhqKl3zKkZPLm-158" target="HFd2KJPhhqKl3zKkZPLm-269">
          <mxGeometry relative="1" as="geometry">
            <mxPoint x="690" y="1150" as="sourcePoint" />
            <mxPoint x="690" y="1001" as="targetPoint" />
          </mxGeometry>
        </mxCell>
        <mxCell id="HFd2KJPhhqKl3zKkZPLm-269" value="Classifier" style="ellipse;whiteSpace=wrap;html=1;labelBackgroundColor=none;fillColor=#182E3E;strokeColor=#FFFFFF;fontColor=#FFFFFF;rounded=0;" vertex="1" parent="1">
          <mxGeometry x="630" y="1040" width="120" height="60" as="geometry" />
        </mxCell>
        <mxCell id="HFd2KJPhhqKl3zKkZPLm-272" value="&lt;font style=&quot;font-size: 40px;&quot;&gt;Modèle relationnel d&#39;ESI-Galactique&lt;/font&gt;" style="text;html=1;align=center;verticalAlign=middle;resizable=0;points=[];autosize=1;strokeColor=none;fillColor=none;" vertex="1" parent="1">
          <mxGeometry x="1420" y="67" width="660" height="60" as="geometry" />
        </mxCell>
        <mxCell id="HFd2KJPhhqKl3zKkZPLm-273" value="&lt;font style=&quot;font-size: 20px;&quot;&gt;Réalisé par Aubin SEPTIER et Maxence CONTANT&lt;/font&gt;" style="text;html=1;align=center;verticalAlign=middle;resizable=0;points=[];autosize=1;strokeColor=none;fillColor=none;" vertex="1" parent="1">
          <mxGeometry x="1600" y="127" width="480" height="40" as="geometry" />
        </mxCell>
      </root>
    </mxGraphModel>
  </diagram>
</mxfile>
